<svg xmlns="http://www.w3.org/2000/svg" width="20.748" height="18.55" viewBox="0 0 20.748 18.55">
  <path id="Arrow_for_button" data-name="Arrow for button" d="M1771.744,8361.259a1.67,1.67,0,0,0-2.476.127,1.737,1.737,0,0,0,.183,2.3l3.808,3.808a.515.515,0,0,1-.364.879h-11.657a1.735,1.735,0,0,0-1.756,1.5,1.67,1.67,0,0,0,1.661,1.841H1772.9a.515.515,0,0,1,.364.879l-3.813,3.813a1.729,1.729,0,0,0-.149,2.331,1.669,1.669,0,0,0,2.447.093l8.26-8.26a.745.745,0,0,0,0-1.052Z" transform="translate(-1759.474 -8360.77)" fill="#fff"/>
</svg>
