<?xml version="1.0" encoding="UTF-8"?><svg xmlns="http://www.w3.org/2000/svg" viewBox="0 0 87.15 74.04"><defs><style>.d{fill:#fff;}.e{fill:#1a374d;}</style></defs><g id="a"/><g id="b"><g id="c"><g><path class="d" d="M73.03,39.72h-8.66c.53-2.51,.76-5.13,.65-7.82-.68-16.85-14.63-30.31-31.5-30.4C16.12,1.4,1.95,15.33,1.65,32.63c-.3,17.37,13.64,31.89,31.01,32.25,3.11,.07,6.12-.32,8.98-1.09,2.75,5.25,8.25,8.84,14.59,8.84h16.8c1.32,0,2.55-.67,3.25-1.79l8.25-13.01c.64-1.01,.64-2.31,0-3.32l-8.25-13.01c-.71-1.11-1.93-1.79-3.25-1.79Z"/><g><path class="e" d="M33.35,61.05c-15.28,0-27.71-12.43-27.71-27.71S18.07,5.64,33.35,5.64s27.71,12.43,27.71,27.71c0,.54-.02,1.07-.05,1.6-.05,.82-.75,1.45-1.57,1.4-.82-.05-1.45-.75-1.4-1.57,.03-.47,.04-.95,.04-1.43,0-13.64-11.09-24.73-24.73-24.73S8.62,19.71,8.62,33.34s11.09,24.73,24.73,24.73c.63,0,1.25-.02,1.87-.07,.8-.08,1.54,.55,1.6,1.37,.06,.82-.55,1.54-1.37,1.6-.69,.05-1.39,.08-2.1,.08Z"/><path class="e" d="M33.35,66.69C14.96,66.69,0,51.73,0,33.34S14.96,0,33.35,0s33.34,14.96,33.34,33.34c0,.53-.01,1.06-.04,1.59-.04,.82-.75,1.47-1.56,1.42-.82-.04-1.46-.74-1.42-1.56,.02-.48,.03-.96,.03-1.44,0-16.74-13.62-30.37-30.37-30.37S2.98,16.6,2.98,33.34s13.62,30.37,30.37,30.37c1.08,0,2.15-.06,3.2-.17,.83-.08,1.55,.51,1.64,1.33,.09,.82-.51,1.55-1.32,1.64-1.15,.12-2.33,.18-3.51,.18Z"/><path class="e" d="M33.35,17.61c-.82,0-1.49-.67-1.49-1.49v-2.62c0-.82,.67-1.49,1.49-1.49s1.49,.67,1.49,1.49v2.62c0,.82-.67,1.49-1.49,1.49Z"/><path class="e" d="M43.98,24.19c-.38,0-.76-.15-1.05-.44-.58-.58-.58-1.52,0-2.11l3.39-3.39c.58-.58,1.52-.58,2.11,0,.58,.58,.58,1.52,0,2.11l-3.39,3.39c-.29,.29-.67,.44-1.05,.44Z"/><path class="e" d="M53.18,34.83h-2.62c-.82,0-1.49-.67-1.49-1.49s.67-1.49,1.49-1.49h2.62c.82,0,1.49,.67,1.49,1.49s-.67,1.49-1.49,1.49Z"/><path class="e" d="M33.35,54.67c-.82,0-1.49-.67-1.49-1.49v-2.62c0-.82,.67-1.49,1.49-1.49s1.49,.67,1.49,1.49v2.62c0,.82-.67,1.49-1.49,1.49Z"/><path class="e" d="M19.32,48.86c-.38,0-.76-.15-1.05-.44-.58-.58-.58-1.52,0-2.11l3.39-3.39c.58-.58,1.52-.58,2.11,0,.58,.58,.58,1.52,0,2.11l-3.39,3.39c-.29,.29-.67,.44-1.05,.44Z"/><path class="e" d="M16.12,34.83h-2.62c-.82,0-1.49-.67-1.49-1.49s.67-1.49,1.49-1.49h2.62c.82,0,1.49,.67,1.49,1.49s-.67,1.49-1.49,1.49Z"/><path class="e" d="M22.71,24.19c-.38,0-.76-.15-1.05-.44l-3.39-3.39c-.58-.58-.58-1.52,0-2.11,.58-.58,1.52-.58,2.11,0l3.39,3.39c.58,.58,.58,1.52,0,2.11-.29,.29-.67,.44-1.05,.44Z"/><path class="e" d="M37.32,34.83h-3.97c-.82,0-1.49-.67-1.49-1.49v-5.82c0-.82,.67-1.49,1.49-1.49s1.49,.67,1.49,1.49v4.33h2.48c.82,0,1.49,.67,1.49,1.49s-.67,1.49-1.49,1.49Z"/><path class="e" d="M75.92,74.04h-19.4c-9.8,0-17.77-7.97-17.77-17.77s7.97-17.77,17.77-17.77h19.4c.82,0,1.49,.67,1.49,1.49s-.67,1.49-1.49,1.49h-19.4c-8.15,0-14.79,6.63-14.79,14.79s6.63,14.79,14.79,14.79h19.4c.82,0,1.49,.67,1.49,1.49s-.67,1.49-1.49,1.49Z"/><path class="e" d="M85.66,57.76h-18.57c-.82,0-1.49-.67-1.49-1.49s.67-1.49,1.49-1.49h18.57c.82,0,1.49,.67,1.49,1.49s-.67,1.49-1.49,1.49Z"/><path class="e" d="M80.79,49.76h-15.59c-.82,0-1.49-.67-1.49-1.49s.67-1.49,1.49-1.49h15.59c.82,0,1.49,.67,1.49,1.49s-.67,1.49-1.49,1.49Z"/><path class="e" d="M80.79,65.77h-15.59c-.82,0-1.49-.67-1.49-1.49s.67-1.49,1.49-1.49h15.59c.82,0,1.49,.67,1.49,1.49s-.67,1.49-1.49,1.49Z"/></g><path class="e" d="M52.94,55.61c1.08,0,2.05-.02,3.01,0,.61,.02,1,.38,1.14,.96,.14,.56-.07,1.04-.56,1.32-.25,.15-.58,.2-.88,.21-.82,.03-1.64,0-2.41,0l-.56,3.33c1.25-.1,2.41,.41,3.61,.82,.66,.22,1.45,.06,2.18,.02,.32-.02,.63-.19,.95-.24,.65-.09,1.2,.28,1.38,.89,.17,.59-.11,1.24-.71,1.48-1.49,.58-3.08,.96-4.57,.25-1.64-.77-3.25-.74-4.94-.46-.64,.11-1.2,.02-1.57-.57-.39-.63-.14-1.19,.28-1.69,.91-1.09,1.4-2.31,1.26-3.85-.69,0-1.38,0-2.08,0-.27,0-.54,0-.8-.05-.62-.13-1.01-.63-1.01-1.23,0-.61,.39-1.12,1.03-1.21,.55-.07,1.11-.05,1.67-.06,.33,0,.65,0,1.01,0-.16-1.05-.37-2.03-.47-3.03-.39-4.05,3.46-6.71,7.33-5.08,1.38,.58,2.13,1.71,2.47,3.13,.19,.82-.19,1.46-.91,1.64-.72,.18-1.3-.22-1.55-1.04-.38-1.26-1.29-1.83-2.65-1.65-1.31,.17-2.25,1.08-2.18,2.33,.06,1.22,.32,2.44,.51,3.76Z"/></g></g></g></svg>