<?xml version="1.0" encoding="UTF-8"?><svg xmlns="http://www.w3.org/2000/svg" viewBox="0 0 140.17 59.53"><defs><style>.d{fill:#6998ab;}.e{fill:#1a374d;}</style></defs><g id="a"/><g id="b"><g id="c"><g><g><path class="e" d="M127.33,5.96c-.71-.42-1.54-.64-2.5-.64s-1.8,.21-2.5,.64c-.71,.42-1.25,1.02-1.64,1.78-.39,.77-.58,1.66-.58,2.68s.19,1.91,.58,2.67,.93,1.35,1.64,1.78c.71,.42,1.54,.64,2.5,.64s1.8-.21,2.5-.64c.71-.42,1.25-1.02,1.64-1.78,.39-.76,.58-1.65,.58-2.67s-.19-1.91-.58-2.68c-.39-.77-.93-1.36-1.64-1.78Zm-.4,6.09c-.17,.49-.44,.88-.79,1.17-.35,.29-.79,.43-1.31,.43s-.98-.14-1.33-.43c-.35-.29-.62-.68-.79-1.17-.17-.49-.26-1.03-.26-1.63s.09-1.15,.26-1.64c.17-.49,.44-.88,.79-1.17,.35-.29,.8-.44,1.33-.44s.96,.15,1.31,.44c.35,.29,.61,.68,.79,1.17,.17,.49,.26,1.04,.26,1.64s-.09,1.14-.26,1.63Z"/><path class="e" d="M139.75,7.03c-.28-.55-.67-.97-1.18-1.27-.51-.29-1.1-.44-1.78-.44-.74,0-1.35,.16-1.85,.49-.5,.33-.86,.76-1.09,1.32h-.12v-1.68h-2.22V15.32h2.32v-5.78c0-.47,.09-.88,.27-1.21,.18-.33,.42-.59,.74-.77,.31-.18,.68-.27,1.08-.27,.6,0,1.07,.19,1.41,.56,.34,.37,.51,.89,.51,1.55v5.92h2.32v-6.28c0-.79-.13-1.46-.41-2.01Z"/><path class="e" d="M122.65,30.34c.36-.25,.78-.38,1.25-.38,.56,0,1.01,.16,1.34,.48,.34,.32,.55,.72,.64,1.19h2.22c-.05-.71-.26-1.33-.63-1.86-.37-.53-.86-.95-1.48-1.24-.62-.29-1.33-.44-2.13-.44-.96,0-1.8,.22-2.5,.65-.7,.43-1.25,1.03-1.63,1.8-.39,.77-.58,1.65-.58,2.65s.19,1.88,.57,2.64c.38,.76,.92,1.36,1.62,1.79,.7,.43,1.55,.65,2.53,.65,.83,0,1.55-.15,2.16-.45,.61-.3,1.1-.72,1.45-1.26,.35-.54,.56-1.15,.62-1.85h-2.22c-.07,.36-.2,.66-.38,.91-.18,.25-.41,.44-.68,.57-.27,.13-.58,.19-.92,.19-.48,0-.9-.13-1.26-.39-.36-.26-.63-.63-.83-1.11-.2-.48-.3-1.06-.3-1.73s.1-1.23,.3-1.71c.2-.48,.48-.84,.84-1.1Z"/><polygon class="e" points="138.77 28.22 136.05 28.22 132.51 32.18 132.35 32.18 132.35 24.93 130.02 24.93 130.02 38.08 132.35 38.08 132.35 34.76 133.19 33.86 136.21 38.08 138.99 38.08 134.94 32.47 138.77 28.22"/><path class="e" d="M60.22,10.87h2.52c1.01,0,1.87-.19,2.56-.56s1.22-.89,1.57-1.54,.53-1.4,.53-2.25-.18-1.58-.53-2.24c-.35-.66-.87-1.17-1.56-1.55-.69-.38-1.54-.56-2.55-.56h-4.93V15.32h2.38v-4.44Zm2.18-6.72c.59,0,1.08,.1,1.46,.3,.38,.2,.66,.48,.84,.83,.18,.36,.27,.77,.27,1.23s-.09,.88-.27,1.24c-.18,.36-.46,.64-.84,.85-.38,.21-.86,.31-1.45,.31h-2.2V4.16h2.18Z"/><path class="e" d="M71.7,9.54c0-.47,.09-.88,.27-1.21,.18-.33,.43-.59,.76-.77,.32-.18,.69-.27,1.1-.27,.61,0,1.09,.19,1.43,.56s.51,.89,.51,1.55v5.92h2.32v-6.28c0-.8-.14-1.47-.42-2.02-.28-.55-.68-.97-1.18-1.26-.51-.29-1.11-.43-1.79-.43-.75,0-1.37,.16-1.86,.48s-.84,.76-1.08,1.32h-.12V2.17h-2.27V15.32h2.32v-5.78Z"/><rect class="e" x="80.45" y="5.46" width="2.32" height="9.86"/><path class="e" d="M81.62,4.06c.37,0,.69-.12,.95-.37s.4-.54,.4-.89-.13-.65-.4-.9c-.26-.25-.58-.37-.95-.37s-.68,.12-.95,.37c-.27,.25-.4,.54-.4,.9s.13,.64,.4,.89c.26,.25,.58,.37,.95,.37Z"/><rect class="e" x="85.16" y="2.17" width="2.32" height="13.15"/><rect class="e" x="89.88" y="2.17" width="2.32" height="13.15"/><rect class="e" x="94.59" y="5.46" width="2.32" height="9.86"/><path class="e" d="M95.76,4.06c.37,0,.69-.12,.95-.37,.26-.25,.39-.54,.39-.89s-.13-.65-.39-.9c-.26-.25-.58-.37-.95-.37s-.68,.12-.95,.37c-.27,.25-.4,.54-.4,.9s.13,.64,.4,.89c.27,.25,.58,.37,.95,.37Z"/><path class="e" d="M101.63,13.76h.1c.12,.24,.3,.49,.52,.76,.22,.27,.52,.5,.9,.68,.37,.19,.84,.28,1.41,.28,.77,0,1.47-.2,2.08-.6,.61-.4,1.1-.98,1.45-1.73,.35-.76,.53-1.68,.53-2.76s-.18-2.02-.54-2.78c-.36-.76-.85-1.33-1.46-1.71s-1.3-.58-2.06-.58c-.58,0-1.05,.1-1.43,.29-.37,.19-.67,.43-.89,.7-.22,.27-.39,.53-.51,.77h-.14v-1.63h-2.29v13.56h2.32v-5.25Zm.22-5.04c.18-.47,.44-.84,.79-1.1,.35-.26,.77-.39,1.26-.39s.95,.13,1.3,.4c.35,.27,.61,.64,.78,1.12,.18,.47,.26,1.02,.26,1.63s-.09,1.17-.27,1.65c-.18,.48-.44,.86-.79,1.14-.35,.28-.78,.41-1.29,.41s-.91-.13-1.25-.4c-.34-.27-.61-.64-.79-1.12-.18-.48-.27-1.04-.27-1.68s.09-1.19,.27-1.66Z"/><path class="e" d="M115.83,9.69l-1.68-.36c-.5-.12-.86-.26-1.08-.44-.22-.18-.32-.41-.32-.7,0-.33,.16-.6,.48-.81,.33-.21,.73-.31,1.22-.31,.36,0,.66,.06,.91,.17s.45,.27,.59,.46,.25,.39,.31,.6l2.12-.23c-.16-.84-.57-1.5-1.24-2-.67-.49-1.58-.74-2.73-.74-.79,0-1.48,.12-2.08,.37-.6,.25-1.07,.59-1.41,1.04-.34,.45-.5,.97-.5,1.58,0,.72,.22,1.31,.67,1.78,.45,.47,1.15,.8,2.1,1l1.68,.35c.45,.1,.79,.24,1,.42s.32,.42,.32,.7c0,.33-.17,.61-.5,.84-.34,.23-.78,.34-1.33,.34s-.97-.11-1.3-.34c-.33-.23-.55-.56-.65-1.01l-2.27,.22c.14,.91,.58,1.61,1.32,2.12,.74,.51,1.71,.76,2.92,.76,.82,0,1.55-.13,2.18-.4,.63-.27,1.13-.63,1.49-1.11,.36-.47,.54-1.02,.54-1.64,0-.71-.23-1.28-.69-1.71-.46-.44-1.15-.75-2.08-.96Z"/><polygon class="e" points="60.22 32.49 66.32 32.49 66.32 38.08 68.7 38.08 68.7 24.93 66.32 24.93 66.32 30.5 60.22 30.5 60.22 24.93 57.84 24.93 57.84 38.08 60.22 38.08 60.22 32.49"/><path class="e" d="M77,36.72v1.35h2.24v-6.6c0-.65-.12-1.2-.36-1.64-.24-.44-.55-.78-.94-1.04-.39-.25-.82-.44-1.29-.55-.47-.11-.94-.17-1.42-.17-.69,0-1.32,.1-1.89,.31-.57,.2-1.05,.51-1.44,.91-.39,.4-.68,.91-.85,1.51l2.17,.31c.12-.34,.34-.63,.67-.88,.33-.25,.78-.37,1.35-.37,.54,0,.95,.13,1.24,.4,.29,.27,.43,.64,.43,1.12v.04c0,.22-.08,.39-.25,.49-.17,.1-.43,.18-.79,.23-.36,.05-.83,.1-1.41,.16-.48,.05-.94,.13-1.39,.25-.45,.11-.85,.28-1.2,.5-.35,.22-.64,.51-.84,.87-.21,.36-.31,.82-.31,1.38,0,.65,.14,1.19,.43,1.63,.29,.44,.68,.77,1.18,1,.5,.23,1.06,.34,1.69,.34,.51,0,.96-.07,1.35-.21,.38-.14,.7-.33,.96-.57,.26-.24,.45-.49,.59-.77h.08Zm-.08-2.18c0,.36-.09,.7-.28,1.01-.19,.31-.45,.56-.79,.74-.34,.19-.75,.28-1.21,.28s-.88-.11-1.19-.33c-.31-.22-.47-.54-.47-.97,0-.3,.08-.54,.24-.73,.16-.19,.37-.34,.65-.45,.27-.11,.58-.18,.93-.23,.15-.02,.34-.05,.55-.08,.21-.03,.42-.06,.64-.1,.21-.04,.41-.08,.58-.14,.17-.05,.3-.11,.37-.17v1.16Z"/><path class="e" d="M86.12,30.14c.2,0,.4,.01,.61,.04,.21,.03,.37,.06,.47,.09v-2.14c-.11-.02-.24-.04-.4-.05-.16-.01-.31-.02-.43-.02-.56,0-1.07,.16-1.51,.47-.44,.31-.75,.75-.93,1.32h-.1v-1.64h-2.25v9.86h2.32v-5.8c0-.42,.1-.79,.29-1.11,.19-.32,.46-.57,.79-.75,.34-.18,.72-.27,1.14-.27Z"/><path class="e" d="M94.96,36.52v1.55h2.29v-13.15h-2.33v4.92h-.1c-.12-.24-.29-.5-.51-.77-.22-.27-.51-.5-.89-.7-.37-.19-.85-.29-1.43-.29-.76,0-1.44,.19-2.06,.58-.62,.39-1.11,.96-1.47,1.71-.36,.76-.54,1.68-.54,2.78s.18,2,.53,2.76,.84,1.34,1.45,1.73c.61,.4,1.3,.6,2.08,.6,.56,0,1.03-.09,1.41-.28,.37-.19,.67-.42,.9-.68,.23-.27,.4-.52,.52-.76h.14Zm-1.06-.58c-.35,.27-.77,.4-1.26,.4s-.94-.14-1.29-.41c-.35-.28-.61-.66-.79-1.14-.18-.48-.27-1.03-.27-1.65s.09-1.16,.26-1.63c.18-.48,.44-.85,.78-1.12,.35-.27,.78-.4,1.3-.4s.92,.13,1.27,.39c.34,.26,.61,.63,.78,1.1,.18,.47,.27,1.03,.27,1.66s-.09,1.2-.27,1.68c-.18,.48-.44,.85-.79,1.12Z"/><polygon class="e" points="109.16 35.11 109.06 35.11 107.29 28.22 104.95 28.22 103.17 35.15 103.08 35.15 101.35 28.22 98.98 28.22 101.77 38.08 104.19 38.08 106.04 31.41 106.18 31.41 108.03 38.08 110.45 38.08 113.24 28.22 110.86 28.22 109.16 35.11"/><rect class="e" x="114.87" y="28.22" width="2.32" height="9.86"/><path class="e" d="M116.04,24.29c-.37,0-.68,.12-.95,.37-.27,.25-.4,.55-.4,.9s.13,.64,.4,.89c.27,.25,.58,.37,.95,.37s.69-.12,.95-.37c.26-.25,.39-.54,.39-.89s-.13-.65-.39-.9c-.26-.25-.58-.37-.95-.37Z"/><path class="e" d="M59.68,49.55l-2.83,7.79h.75l.83-2.35h3.27l.83,2.35h.75l-2.83-7.79h-.76Zm-1.03,4.81l1.38-3.88h.05l1.38,3.88h-2.81Z"/><path class="e" d="M68.43,52.61h-.06c-.08-.18-.19-.35-.33-.54s-.33-.34-.57-.47c-.24-.12-.53-.19-.89-.19-.48,0-.9,.13-1.27,.38-.36,.25-.65,.6-.85,1.06-.2,.45-.3,.98-.3,1.58s.1,1.13,.3,1.59c.2,.45,.48,.81,.84,1.06,.36,.25,.78,.38,1.26,.38,.35,0,.65-.06,.89-.19,.24-.13,.43-.28,.57-.47s.26-.37,.33-.55h.08v1.08h.66v-7.79h-.68v3.06Zm-.2,3.06c-.14,.36-.34,.65-.61,.86-.27,.21-.59,.31-.97,.31s-.72-.11-.98-.32c-.27-.21-.47-.5-.61-.87-.14-.37-.21-.78-.21-1.23s.07-.85,.21-1.21c.14-.36,.34-.65,.61-.86,.27-.21,.6-.32,.99-.32s.7,.1,.97,.31c.27,.2,.47,.48,.61,.84,.14,.36,.21,.77,.21,1.24s-.07,.89-.21,1.25Z"/><polygon class="e" points="73.1 56.45 73.04 56.45 71.31 51.5 70.57 51.5 72.71 57.34 73.43 57.34 75.56 51.5 74.83 51.5 73.1 56.45"/><path class="e" d="M77.24,49.52c-.14,0-.26,.05-.36,.14-.1,.09-.15,.21-.15,.34s.05,.25,.15,.34c.1,.09,.22,.14,.36,.14s.26-.05,.36-.14c.1-.09,.15-.21,.15-.34s-.05-.25-.15-.34c-.1-.1-.22-.14-.36-.14Z"/><rect class="e" x="76.89" y="51.5" width=".68" height="5.84"/><path class="e" d="M81.91,54.22l-.88-.22c-.36-.09-.63-.21-.8-.37-.17-.16-.26-.36-.26-.61,0-.3,.13-.54,.38-.73,.25-.19,.58-.28,.97-.28,.26,0,.48,.04,.66,.12,.18,.08,.32,.2,.44,.34,.11,.14,.2,.3,.26,.48l.62-.17c-.14-.42-.37-.76-.69-1-.32-.24-.75-.36-1.28-.36-.39,0-.74,.07-1.05,.21-.31,.14-.55,.33-.72,.58-.17,.24-.26,.53-.26,.85,0,.39,.12,.72,.37,.98,.24,.26,.62,.46,1.13,.58l.95,.23c.32,.08,.56,.19,.72,.36,.16,.16,.24,.36,.24,.6,0,.3-.13,.56-.4,.76-.27,.2-.63,.3-1.08,.3-.4,0-.72-.09-.97-.27-.24-.18-.41-.44-.49-.79l-.65,.16c.1,.49,.34,.86,.71,1.12,.37,.26,.84,.39,1.41,.39,.43,0,.81-.07,1.13-.22,.33-.15,.58-.35,.76-.6,.18-.26,.27-.55,.27-.88,0-.39-.12-.72-.37-.97-.24-.26-.61-.45-1.1-.57Z"/><path class="e" d="M88.47,51.8c-.39-.26-.83-.38-1.34-.38s-.95,.13-1.34,.38c-.39,.25-.69,.61-.91,1.06-.22,.46-.33,.98-.33,1.58s.11,1.12,.33,1.57c.22,.45,.52,.81,.91,1.06s.83,.38,1.34,.38,.95-.13,1.34-.38c.39-.26,.69-.61,.91-1.06,.22-.45,.33-.98,.33-1.57s-.11-1.12-.33-1.58c-.22-.45-.52-.81-.91-1.07Zm.34,3.84c-.15,.36-.36,.65-.64,.87-.28,.22-.62,.33-1.03,.33s-.75-.11-1.03-.33c-.28-.22-.5-.51-.64-.87-.15-.36-.22-.76-.22-1.2s.07-.84,.22-1.2c.15-.37,.36-.66,.64-.88,.28-.22,.63-.33,1.03-.33s.75,.11,1.03,.33c.28,.22,.5,.51,.64,.88,.15,.36,.22,.77,.22,1.2s-.07,.84-.22,1.2Z"/><path class="e" d="M93.5,51.41c-.37,0-.7,.09-.99,.27-.29,.18-.49,.42-.61,.71h-.05v-.9h-.66v5.84h.68v-3.77c0-.29,.07-.55,.2-.77,.14-.22,.32-.4,.56-.53,.24-.13,.51-.19,.81-.19,.09,0,.17,0,.25,.02,.08,0,.13,.02,.16,.02v-.69s-.1,0-.17,0c-.07,0-.13,0-.19,0Z"/><path class="e" d="M97.25,56.45h-.05l-1.74-4.95h-.73l2.15,5.9-.21,.59c-.11,.29-.23,.51-.37,.66-.14,.14-.3,.23-.48,.24-.18,.02-.39,0-.62-.08l-.18,.6c.07,.03,.16,.06,.28,.08,.12,.03,.24,.04,.38,.04,.25,0,.47-.05,.67-.14,.2-.09,.37-.23,.53-.42,.15-.19,.28-.42,.38-.71l2.47-6.77h-.73l-1.74,4.95Z"/></g><g><path class="d" d="M16.98,21.33c.28-.6,.42-1.28,.42-2.04s-.14-1.44-.42-2.03c-.28-.6-.73-1.07-1.35-1.41-.62-.34-1.45-.51-2.48-.51h-4.03v7.95h4.07c1.02,0,1.83-.18,2.45-.53,.62-.35,1.06-.83,1.35-1.43Z"/><path class="d" d="M39.08,7.76h0v24.47h-2.29v-8.47h-10.09v8.47h-2.29V13.3h2.29v8.43h10.09V5.45C32.88,2.06,27.79,0,22.21,0,9.94,0,0,9.94,0,22.21c0,6.3,2.62,11.98,6.83,16.02V13.3h6.4c1.48,0,2.7,.27,3.65,.8,.95,.53,1.65,1.25,2.1,2.16,.46,.91,.68,1.92,.68,3.03s-.23,2.13-.68,3.04c-.45,.91-1.15,1.64-2.09,2.18-.94,.54-2.15,.81-3.62,.81h-4.14v14.83c3.67,2.68,8.19,4.27,13.09,4.27,12.27,0,22.21-9.94,22.21-22.21,0-5.52-2.01-10.56-5.34-14.45Z"/></g></g></g></g></svg>