<?xml version="1.0" encoding="UTF-8"?><svg xmlns="http://www.w3.org/2000/svg" viewBox="0 0 65.01 64.89"><defs><style>.d{fill:#fff;}.e{fill:#ffc53c;}.f{fill:#1a374d;}</style></defs><g id="a"/><g id="b"><g id="c"><g><path class="d" d="M21.85,11.14h13.75v-1.53h3.98c0-3.81-3.31-4.81-3.31-4.81l.42-3.24c6.23,0,7.28,5.27,7.28,5.27v4.33c1.64,.04,3.24,.28,4.76,.69v-2.23h3.98c0-3.81-3.31-4.81-3.31-4.81l.42-3.24c6.23,0,7.28,5.27,7.28,5.27v10.86c4.07,3.15,6.76,7.88,6.76,13.87v1.37c0,11.23-9.19,20.41-20.41,20.41h-15.48l-9.25,9.57-1-9.99C8.46,51,1.43,42.74,1.43,32.92v-1.37c0-11.23,9.19-20.41,20.41-20.41Z"/><path class="f" d="M49.28,6.33c-.79-.15-1.21-.54-1.24-1.29-.04-1.25-.04-2.49,0-3.74,.03-.81,.58-1.34,1.35-1.29,1.98,.11,3.84,.59,5.42,1.86,2.11,1.69,3.03,4.01,3.19,6.59,.18,2.93,.14,5.87,.15,8.8,0,1.12-.82,1.92-2.01,1.94-2.26,.04-4.52,.04-6.78,0-1.25-.02-2.03-.79-2.05-2.04-.04-2.01-.04-4.02,0-6.02,.03-1.28,.83-2.02,2.1-2.05,.7-.02,1.39,0,2.13,0-.09-1.66-.79-2.48-2.26-2.75Zm6.34,10.1c-.04-2.62,0-5.24-.14-7.85-.1-1.71-.67-3.3-2.01-4.52-.8-.73-1.74-1.16-2.81-1.34-.25,1.02-.19,1.14,.68,1.6,1.79,.93,2.49,2.55,2.76,4.42,.06,.42,.09,.84,.11,1.26,.05,1.05-.43,1.58-1.49,1.6-.93,.02-1.85,0-2.89,0,0,.52,0,1,0,1.47,0,1.03-.01,2.07,.02,3.1,0,.16,.21,.45,.33,.45,1.79,.03,3.58,.02,5.36,.02,.04-.11,.07-.17,.07-.23Z"/><path class="f" d="M36.17,6.31c-.69-.16-1.08-.58-1.09-1.28-.02-1.25-.03-2.49,0-3.74,.02-.82,.6-1.32,1.42-1.28,.5,.03,1.01,.09,1.51,.19,3.96,.78,6.53,3.43,6.93,7.59,.3,3.15,.23,6.33,.25,9.5,0,1.12-.82,1.89-1.97,1.91-2.28,.04-4.57,.04-6.85,0-1.26-.02-2.02-.85-2.03-2.12-.02-1.94-.02-3.89,0-5.83,.01-1.33,.81-2.12,2.14-2.15,.7-.02,1.39,0,2.13,0-.24-1.84-.73-2.38-2.43-2.78Zm.73,10.3h5.7c.02-.08,.07-.18,.07-.28-.03-2.49,0-4.98-.12-7.47-.09-1.82-.64-3.53-2.07-4.82-.8-.72-1.74-1.15-2.86-1.32,0,.37-.03,.68,.01,.99,.02,.15,.15,.35,.28,.4,2.23,.9,3.01,2.75,3.27,4.94,.04,.29,.04,.59,.06,.88,.09,1.1-.41,1.66-1.53,1.68-.72,.02-1.44,0-2.15,0-.21,0-.41,.02-.65,.03v4.95Z"/><path class="f" d="M32.49,25.04c5.01,0,10.02,0,15.03,0,.29,0,.59,0,.88-.06,.58-.11,1.01-.63,1.01-1.21,0-.58-.42-1.1-1.01-1.21-.25-.05-.5-.06-.76-.06-10.06,0-20.13,0-30.19,0-.27,0-.55,.01-.82,.06-.56,.11-.96,.61-.97,1.17-.02,.58,.4,1.12,.98,1.23,.29,.06,.59,.06,.88,.06,4.99,0,9.98,0,14.97,0Z"/><path class="f" d="M32.51,29.27c-4.95,0-9.89,0-14.84,0-.15,0-.3,0-.44,0-.98,.01-1.57,.49-1.56,1.27,0,.78,.6,1.27,1.58,1.27,10.19,0,20.38,0,30.57,0,.21,0,.42-.02,.63-.07,.6-.15,.99-.66,.97-1.24-.02-.6-.48-1.11-1.11-1.2-.23-.03-.46-.02-.7-.02-5.03,0-10.06,0-15.09,0Z"/><path class="f" d="M32.6,38.56c4.99,0,9.98,0,14.97,0,.25,0,.51,0,.76-.03,.6-.09,1.04-.57,1.08-1.16,.04-.58-.34-1.12-.93-1.27-.24-.06-.5-.08-.75-.08-10.13,0-20.25,0-30.38,0-.25,0-.51,.02-.75,.08-.59,.15-.97,.69-.93,1.27,.04,.58,.48,1.07,1.08,1.15,.25,.04,.51,.03,.76,.03,5.03,0,10.06,0,15.09,0Z"/><path class="f" d="M25.18,42.8c-2.58,0-5.16,0-7.74,0-1.17,0-1.77,.43-1.77,1.26,0,.83,.6,1.28,1.75,1.28,5.22,0,10.45,0,15.67,0,.11,0,.21,0,.32,0,.89-.05,1.44-.55,1.42-1.29-.01-.73-.53-1.21-1.4-1.24-.78-.03-1.56,0-2.35,0-1.97,0-3.93,0-5.9,0Z"/><path class="f" d="M28.49,11.15c0,.66,.62,1.26,1.27,1.25,.66,0,1.26-.62,1.25-1.28,0-.67-.6-1.25-1.27-1.24-.68,0-1.26,.6-1.25,1.27Z"/><path class="f" d="M39.46,44.1c.02,.69,.58,1.23,1.27,1.22,.72,0,1.28-.6,1.24-1.31-.03-.69-.6-1.21-1.3-1.18-.7,.02-1.23,.58-1.22,1.27Z"/><path class="e" d="M19.48,60.42v-1.88c0-1.63,0-3.26,0-4.88,0-1.14-.26-1.5-1.39-1.76-2.58-.6-4.97-1.65-7.1-3.22-4.53-3.34-7.32-7.78-8.14-13.37-.84-5.74,.6-10.92,4.22-15.43,3.21-3.99,7.4-6.43,12.5-7.19,1.29-.19,2.61-.19,3.92-.27,.23-.01,.47,.01,.7-.01,.79-.07,1.29-.58,1.28-1.3-.01-.72-.53-1.21-1.34-1.23-2.55-.06-5.07,.1-7.53,.83-7.21,2.15-12.32,6.68-15,13.71-2.76,7.23-1.87,14.18,2.37,20.62,2.94,4.47,7.1,7.41,12.22,8.96,.57,.17,.79,.38,.78,1.02-.04,2.79-.02,5.58-.02,8.37,0,.91,.44,1.56,1.17,1.5,.45-.03,.97-.32,1.3-.64,2.64-2.59,5.3-5.17,7.84-7.86,1.03-1.09,2.07-1.5,3.57-1.47,4.19,.09,8.38,.14,12.56-.03,7-.28,12.67-3.29,16.97-8.8,3.35-4.3,4.84-9.24,4.64-14.67-.12-3.45-1.05-6.7-2.69-9.74-.42-.77-1.13-1.04-1.79-.7-.65,.34-.87,1.08-.46,1.86,1.13,2.15,1.91,4.41,2.23,6.83,.59,4.46-.18,8.68-2.41,12.59-2.53,4.44-6.25,7.48-11.09,9.14-2.18,.75-4.43,1.04-6.73,1.03-4.42,0-8.84,0-13.26-.01-.77,0-1.36,.24-1.91,.79-2.24,2.28-4.51,4.52-6.76,6.78-.16,.16-.28,.37-.42,.56l-.22-.12Z"/></g></g></g></svg>