<?xml version="1.0" encoding="UTF-8"?><svg xmlns="http://www.w3.org/2000/svg" viewBox="0 0 59.2 41.35"><defs><style>.d{fill:#fff;}.e{fill:#1a374d;}</style></defs><g id="a"/><g id="b"><g id="c"><g><path class="d" d="M17.32,11.3c-1.52,0-3.02-.21-4.44,.04-5.67,.97-9.45,4.24-11.06,9.78-1.5,5.18,.41,10.74,4.65,14.07,4.82,3.79,11.45,3.87,16.41,.22,.19-.14,.47-.31,.67-.26,2.2,.47,4.44,.65,6.68,.73,.12,0,.31,.13,.35,.25,.31,.89,.93,1.53,1.72,1.93,.96,.49,1.95,.97,2.99,1.24,5.47,1.45,10.98,1.45,16.5,.32,1.59-.33,3.13-.81,4.5-1.74,1.06-.72,1.62-1.66,1.6-3-.05-3.79-.03-7.58,0-11.37,0-1.26-.48-2.25-1.5-2.96-.5-.34-1.03-.64-1.58-.88-1.84-.79-3.78-1.2-5.76-1.43-1.35-.16-2.7-.24-4.12-.37v-.65c0-3.53-.02-7.06,.01-10.59,.01-1.29-.5-2.31-1.52-3.01-.78-.53-1.66-.96-2.54-1.28-2.67-.97-5.47-1.28-8.29-1.39-3.6-.15-7.17,.09-10.66,1.07-1.21,.34-2.38,.78-3.39,1.55-.8,.6-1.38,1.34-1.36,2.4,.03,1.6,.1,3.2,.15,4.8,0,.2,0,.39,0,.53Z"/><path class="e" d="M16.75,10.87c0-.15,0-.35,0-.56-.05-1.67-.12-3.35-.15-5.02-.02-1.1,.59-1.88,1.42-2.51,1.06-.8,2.28-1.27,3.55-1.62C25.21,.14,28.95-.11,32.71,.04c2.95,.12,5.88,.44,8.67,1.46,.93,.34,1.85,.79,2.66,1.34,1.07,.73,1.6,1.79,1.59,3.15-.03,3.69-.01,7.39-.01,11.08v.68c1.48,.13,2.9,.22,4.31,.38,2.07,.24,4.1,.67,6.02,1.5,.58,.25,1.14,.57,1.66,.92,1.08,.74,1.58,1.77,1.57,3.09-.02,3.96-.04,7.93,.01,11.89,.02,1.41-.56,2.39-1.67,3.14-1.43,.97-3.04,1.48-4.7,1.82-5.78,1.18-11.55,1.18-17.27-.33-1.08-.29-2.12-.79-3.13-1.3-.83-.42-1.48-1.09-1.8-2.02-.04-.12-.24-.25-.36-.26-2.35-.09-4.68-.27-6.99-.77-.21-.04-.5,.13-.7,.28-5.19,3.82-12.13,3.74-17.17-.23C.97,32.39-1.04,26.56,.53,21.14c1.68-5.8,5.63-9.22,11.57-10.24,1.49-.25,3.06-.04,4.65-.04Zm-2.66,25.66c6.48,.02,11.71-5.18,11.76-11.67,.05-6.48-5.22-11.76-11.76-11.79-6.4-.03-11.7,5.29-11.71,11.74,0,6.45,5.24,11.7,11.72,11.72ZM31.08,2.34c-2.84,.03-5.52,.22-8.15,.89-1.29,.33-2.56,.7-3.64,1.53-.4,.31-.46,.65,0,.91,.71,.41,1.43,.84,2.19,1.12,2.15,.77,4.4,1.08,6.67,1.22,3.94,.24,7.85,.06,11.67-1.01,.88-.25,1.74-.63,2.54-1.07,.93-.51,.92-.87,.02-1.39-.57-.34-1.19-.63-1.83-.84-3.11-1.07-6.35-1.29-9.47-1.35Zm13.53,23.54c2.66,0,5.32-.17,7.9-.85,1.18-.31,2.34-.75,3.44-1.28,1.04-.5,1.01-.9,.02-1.46-.56-.32-1.17-.59-1.78-.8-2.29-.79-4.68-1.09-7.08-1.22-3.67-.2-7.32-.09-10.88,.89-1.11,.31-2.17,.85-3.2,1.39-.54,.28-.53,.64,0,.97,.68,.42,1.4,.81,2.16,1.06,3.06,1.05,6.24,1.3,9.45,1.31Zm-11.75,7.01c0,.88,.03,1.8-.01,2.72-.02,.56,.19,.96,.65,1.18,.83,.4,1.66,.84,2.53,1.08,5.3,1.42,10.65,1.42,16.01,.38,1.4-.27,2.77-.66,3.99-1.44,.29-.19,.69-.49,.71-.77,.08-1.14,.03-2.29,.03-3.33-7.95,2.79-15.9,2.76-23.92,.17Zm-.12-6.56c0,.95,.02,1.99,0,3.02,0,.4,.12,.69,.46,.85,.95,.42,1.87,.92,2.86,1.18,5.23,1.36,10.5,1.33,15.78,.34,1.46-.27,2.9-.66,4.15-1.5,.33-.22,.69-.65,.73-1.02,.1-1.02,.03-2.05,.03-3.01-7.99,2.76-15.96,2.77-24.01,.13ZM19.1,8.55c0,.81,.01,1.7,0,2.6,0,.36,.12,.51,.45,.68,.97,.5,1.91,1.07,2.86,1.6,.3,.16,.6,.35,.93,.42,4.94,1.07,9.89,1.04,14.83,.1,1.47-.28,2.92-.67,4.22-1.48,.38-.24,.73-.49,.75-1.01,.04-1.06,.11-2.12,.16-3.1-8.11,2.84-16.13,2.82-24.19,.2Zm24.13,6.26c-5.66,2.42-11.56,2.42-17.38,1.92,.59,1.34,1.17,2.71,1.79,4.07,.06,.13,.28,.24,.44,.25,.88,.05,1.77,.08,2.65,.09,.17,0,.35-.11,.5-.2,.79-.46,1.53-1.05,2.37-1.39,2.2-.91,4.54-1.3,6.9-1.53,.91-.09,1.82-.14,2.74-.21v-3Zm-12.81,15.25c-1-.05-1.93-.12-2.87-.14-.15,0-.35,.18-.43,.33-.31,.55-.55,1.14-.87,1.69-.35,.6-.76,1.17-1.23,1.89l5.4,.46v-4.22Zm-2.18-6.56l-.22,4.08,2.28,.1v-4.18h-2.06Z"/><path class="e" d="M13.32,24.44c1.01,0,1.91-.02,2.81,0,.57,.01,.93,.36,1.07,.89,.13,.52-.06,.97-.52,1.23-.24,.14-.54,.19-.82,.2-.77,.03-1.53,0-2.25,0l-.52,3.11c1.17-.1,2.25,.39,3.37,.76,.61,.21,1.35,.06,2.03,.02,.3-.02,.59-.18,.89-.22,.6-.09,1.12,.26,1.28,.83,.16,.55-.1,1.16-.66,1.38-1.39,.54-2.87,.89-4.26,.24-1.53-.72-3.04-.7-4.61-.43-.6,.1-1.12,.02-1.46-.53-.36-.59-.13-1.11,.27-1.58,.85-1.02,1.31-2.16,1.17-3.59-.64,0-1.29,0-1.94,0-.25,0-.5,0-.75-.04-.58-.12-.94-.58-.94-1.15,0-.57,.37-1.05,.96-1.13,.51-.07,1.04-.04,1.55-.05,.3,0,.61,0,.94,0-.15-.98-.35-1.9-.43-2.82-.36-3.78,3.23-6.26,6.84-4.74,1.28,.54,1.99,1.6,2.3,2.92,.18,.76-.17,1.36-.85,1.53-.67,.17-1.22-.2-1.45-.97-.35-1.17-1.21-1.71-2.47-1.54-1.22,.16-2.1,1.01-2.04,2.18,.06,1.14,.3,2.28,.47,3.5Z"/></g></g></g></svg>