<?xml version="1.0" encoding="UTF-8"?><svg xmlns="http://www.w3.org/2000/svg" viewBox="0 0 93.55 13.95"><defs><style>.d,.e{fill:#ffc53c;}.e{mix-blend-mode:multiply;}.f{opacity:.6;}.g{isolation:isolate;}</style></defs><g class="g"><g id="a"/><g id="b"><g id="c"><g><polygon class="d" points="7.34 0 9.75 4.39 14.67 5.33 11.24 8.98 11.87 13.95 7.34 11.82 2.8 13.95 3.43 8.98 0 5.33 4.92 4.39 7.34 0"/><polygon class="d" points="27.05 0 29.47 4.39 34.39 5.33 30.96 8.98 31.59 13.95 27.05 11.82 22.52 13.95 23.15 8.98 19.72 5.33 24.64 4.39 27.05 0"/><polygon class="d" points="46.77 0 49.19 4.39 54.11 5.33 50.68 8.98 51.31 13.95 46.77 11.82 42.24 13.95 42.86 8.98 39.44 5.33 44.36 4.39 46.77 0"/><polygon class="e" points="66.49 0 68.91 4.39 73.83 5.33 70.4 8.98 71.03 13.95 66.49 11.82 61.96 13.95 62.58 8.98 59.15 5.33 64.08 4.39 66.49 0"/><g class="f"><polygon class="e" points="86.21 0 88.62 4.39 93.55 5.33 90.12 8.98 90.74 13.95 86.21 11.82 81.68 13.95 82.3 8.98 78.87 5.33 83.79 4.39 86.21 0"/></g></g></g></g></g></svg>