<?xml version="1.0" encoding="UTF-8"?><svg xmlns="http://www.w3.org/2000/svg" viewBox="0 0 55.09 55.03"><defs><style>.d{fill:#fff;}.e{stroke-width:.25px;}.e,.f,.g{fill:#1a374d;stroke:#1a374d;stroke-miterlimit:10;}.f{stroke-width:.66px;}.g{stroke-width:.33px;}</style></defs><g id="a"/><g id="b"><g id="c"><g><circle class="d" cx="27.54" cy="27.52" r="26.62"/><g><path class="g" d="M.17,27.54C.27,15.28,8.38,4.43,20.21,1.23c9.4-2.54,17.9-.52,25.38,5.73,.51,.43,.59,.89,.24,1.29-.33,.37-.78,.37-1.27-.06-3.33-2.89-7.13-4.83-11.44-5.78C18.86-.72,4.85,8.64,2.28,23-.06,36.05,7.94,48.74,20.75,52.31c14.56,4.05,29.53-5.36,32.15-20.29,1.34-7.63-.52-14.52-5.28-20.63-.08-.1-.16-.19-.23-.29-.43-.54-.45-.98-.05-1.31,.4-.34,.86-.26,1.27,.28,.69,.9,1.4,1.8,2.01,2.76,3.36,5.32,4.77,11.14,4.17,17.4-1.17,12.28-10.57,22.26-22.8,24.28-14.7,2.43-28.83-7.61-31.29-22.26-.26-1.56-.36-3.14-.53-4.71Z"/><path class="f" d="M27.64,4.31c10.25,.09,19.04,6.47,22.1,16.26,3.9,12.47-3.04,25.24-15.22,29.12-.62,.2-1.06,.01-1.21-.49-.15-.49,.14-.84,.83-1.08,7.55-2.61,12.43-7.79,14.42-15.49,2.89-11.21-3.91-22.77-15.09-25.9-5.18-1.45-10.24-1.03-15.12,1.25-.06,.03-.13,.06-.19,.09-.57,.26-1.02,.14-1.23-.32-.2-.45-.03-.87,.52-1.11,.94-.41,1.89-.83,2.86-1.16,2.29-.8,4.91-1.19,7.33-1.17Z"/><path class="f" d="M27.57,50.77c-10.25-.12-18.95-6.51-22.13-16.28-3.02-9.27,.48-19.98,8.39-25.64,.22-.16,.57-.3,.81-.24,.23,.06,.49,.35,.59,.59,.15,.38-.09,.67-.4,.9-1.46,1.06-2.76,2.3-3.9,3.69C1.48,25.31,6.17,42.62,20.13,47.8c3.17,1.18,6.45,1.56,9.81,1.2,.11-.01,.21-.02,.32-.02,.53-.01,.9,.29,.92,.75,.02,.44-.29,.8-.79,.84-.94,.08-1.88,.14-2.82,.2Z"/><path class="g" d="M23.19,27.53c0,.84,.08,1.7-.02,2.53-.21,1.79-1.71,3.03-3.46,2.96-1.78-.07-3.16-1.41-3.24-3.25-.06-1.49-.06-2.99,0-4.49,.08-1.9,1.6-3.29,3.44-3.24,1.87,.05,3.28,1.52,3.3,3.44,0,.68,0,1.37,0,2.05h-.03Zm-1.41,0c0-.68,0-1.37,0-2.05-.01-1.15-.83-1.99-1.93-2-1.08,0-1.92,.8-1.95,1.93-.03,1.41-.03,2.83,0,4.25,.02,1.13,.87,1.94,1.95,1.93,1.1,0,1.91-.85,1.93-2,0-.68,0-1.37,0-2.05Z"/><path class="g" d="M31.41,27.56c0,.83,.08,1.66-.02,2.48-.2,1.78-1.71,3.03-3.45,2.97-1.8-.07-3.19-1.43-3.25-3.28-.05-1.46-.05-2.93,0-4.39,.07-1.92,1.58-3.35,3.43-3.3,1.89,.04,3.3,1.52,3.31,3.48,0,.68,0,1.37,0,2.05h-.03Zm-1.41-.01c0-.7,0-1.4,0-2.1-.02-1.13-.82-1.96-1.9-1.98-1.06-.02-1.93,.75-1.97,1.85-.05,1.46-.05,2.93,0,4.39,.03,1.1,.9,1.88,1.96,1.86,1.08-.02,1.89-.85,1.91-1.97,.01-.68,0-1.37,0-2.05Z"/><path class="g" d="M13.55,23.47c-.43,0-.8,0-1.18,0-.56-.02-.87-.3-.86-.74,.01-.43,.32-.68,.86-.69,.6,0,1.21-.01,1.81,0,.53,.01,.8,.27,.8,.8,0,3.12,0,6.24,0,9.36,0,.51-.3,.82-.74,.81-.44,0-.69-.31-.69-.85,0-2.69,0-5.38,0-8.07,0-.19,0-.37,0-.62Z"/><path class="g" d="M36.3,33.01c-.46,0-.8-.41-.69-.87,.03-.12,.08-.24,.14-.35,1.4-3.05,2.81-6.09,4.22-9.14,.06-.13,.11-.31,.22-.36,.24-.11,.56-.25,.77-.18,.2,.08,.36,.4,.45,.64,.05,.13-.06,.34-.13,.49-1.41,3.06-2.82,6.12-4.23,9.18-.15,.33-.34,.58-.73,.58Z"/><path class="e" d="M37.14,24.41c0,1.49-1.19,2.59-2.53,2.35-1.18-.21-1.96-1.48-1.74-2.82,.21-1.24,1.27-2.06,2.44-1.89,1.04,.16,1.83,1.17,1.83,2.35Zm-1.44,0c0-.5-.31-.93-.69-.94-.4-.02-.75,.41-.75,.94,0,.52,.34,.96,.74,.94,.38-.01,.7-.44,.7-.94Z"/><path class="e" d="M44.11,30.64c-.06,1.52-1.2,2.56-2.52,2.34-.84-.14-1.57-.89-1.74-1.81-.2-1.06,.21-2.1,1.04-2.62,.71-.45,1.6-.41,2.28,.11,.67,.51,.94,1.22,.94,1.98Zm-1.44-.03c0-.51-.32-.92-.71-.93-.4,0-.74,.44-.73,.96,0,.5,.33,.92,.71,.93,.4,0,.73-.43,.73-.95Z"/></g></g></g></g></svg>