<?xml version="1.0" encoding="UTF-8"?><svg xmlns="http://www.w3.org/2000/svg" viewBox="0 0 1920 821.94"><defs><style>.d{fill:none;}.e{fill:#e8edef;}.f{fill:#fff;}.g{opacity:.2;}</style></defs><g id="a"/><g id="b"><g id="c"><g><rect class="e" width="1919.81" height="817.55"/><g class="g"><polygon class="d" points="1920 325.3 0 727.4 0 821.94 343.93 821.94 1920 491.87 1920 325.3"/><polygon class="d" points="0 1.71 0 210.74 998.09 1.71 0 1.71"/><polygon class="d" points="1920 1.71 1840.62 1.71 0 387.18 0 550.95 1920 148.85 1920 1.71"/><polygon class="d" points="1186.45 821.94 1920 821.94 1920 668.32 1186.45 821.94"/><polygon class="f" points="998.09 1.71 0 210.74 0 387.18 1840.62 1.71 998.09 1.71"/><polygon class="f" points="1920 148.85 0 550.95 0 727.4 1920 325.3 1920 148.85"/><polygon class="f" points="1920 491.87 343.93 821.94 1186.45 821.94 1920 668.32 1920 491.87"/></g></g></g></g></svg>