<?xml version="1.0" encoding="UTF-8"?><svg xmlns="http://www.w3.org/2000/svg" viewBox="0 0 48.63 48.62"><defs><style>.d{fill:#fff;}.e{fill:#1a374d;}</style></defs><g id="a"/><g id="b"><g id="c"><g><path class="d" d="M45.23,34.79V7.17c0-1.07-.87-1.94-1.94-1.94h-7.81V1.59c0-.06-.02-.12-.06-.17-1.52-1.71-3.46-.62-3.46,.89v2.92H14.48V1.59c0-.06-.02-.12-.06-.17-1.52-1.71-3.46-.62-3.46,.89v2.92H3.28c-1.07,0-1.94,.87-1.94,1.94V42.08c0,1.07,.87,1.94,1.94,1.94h30.21c2.09,2.76,6.06,4.02,10.01,1.87,.97-.53,1.78-1.32,2.31-2.29,1.8-3.29,1.24-6.59-.58-8.82Z"/><g><path class="e" d="M9.79,3.8c-.09-1.21,.03-2.31,.99-3.12C11.35,.2,12.01-.02,12.76,0c1.74,.06,2.62,1.25,2.74,3.76h15.37c0-.3,0-.61,0-.92C30.9,1.25,32.14,0,33.71,0c1.57,0,2.82,1.24,2.86,2.83,0,.3,0,.6,0,.97,.19,0,.35,0,.52,0,2.06,0,4.12,0,6.17,0,1.88,0,3.09,1.21,3.09,3.09,0,8.78,0,17.57,0,26.35,0,.33,.08,.59,.29,.86,4.28,5.34,1.3,13.25-5.45,14.39-3.43,.58-6.29-.61-8.5-3.3-.21-.26-.41-.37-.75-.37-2.77,.01-5.54,0-8.31,0-.62,0-1.01-.27-1.11-.75-.13-.64,.33-1.15,1.04-1.15,2.31,0,4.62,0,6.93,0,.27,0,.54,0,.81,0l-.58-2.66h-.51c-8.1,0-16.21,0-24.31,0-1.07,0-1.35-.28-1.35-1.35,0-7.22,0-14.43,0-21.65,0-1.03,.28-1.31,1.33-1.31,11.52,0,23.04,0,34.57,0,1.05,0,1.33,.28,1.33,1.31,0,4.38,0,8.77,0,13.15v.52l2.62,1.1V13.3h-.61c-11.6,0-23.2,0-34.8,0-.19,0-.38,.01-.57-.01-.48-.06-.83-.47-.83-.94,0-.47,.36-.87,.84-.93,.17-.02,.35-.01,.52-.01,11.6,0,23.2,0,34.8,0h.65c.01-.16,.03-.3,.03-.43,0-1.35,0-2.69,0-4.04,0-.86-.36-1.22-1.2-1.23-2.2,0-4.4,0-6.68,0,0,.31,0,.6,0,.89-.02,1.65-1.27,2.92-2.87,2.91-1.58,0-2.81-1.27-2.83-2.91,0-.28,0-.56,0-.87H15.48c0,.31,0,.61,0,.92-.03,1.59-1.27,2.84-2.84,2.85-1.58,0-2.84-1.25-2.86-2.87,0-.28,0-.57,0-.93h-.47c-2.06,0-4.12,0-6.17,0-.89,0-1.24,.35-1.24,1.23,0,11.58,0,23.17,0,34.75,0,.88,.35,1.23,1.24,1.23,4.12,0,8.23,0,12.35,0,.16,0,.32,0,.47,.01,.48,.07,.84,.49,.83,.95,0,.45-.35,.85-.81,.92-.15,.02-.32,.02-.47,.02-4.12,0-8.23,0-12.35,0-1.97,0-3.17-1.19-3.17-3.16C0,30.1,0,18.53,0,6.96c0-1.97,1.19-3.16,3.16-3.16,2.18,0,4.37,0,6.63,0ZM46.73,39.71c0-3.88-3.14-7.04-7.02-7.05-3.86,0-7.02,3.13-7.04,6.98-.02,3.88,3.12,7.06,6.99,7.07,3.88,.01,7.05-3.13,7.06-7.01ZM13.56,17.87v5.56h5.1v-5.56h-5.1Zm14.13,0v5.56h5.1v-5.56h-5.1Zm-14.13,14.91v5.56h5.1v-5.56h-5.1Zm5.1-1.93v-5.46h-5.1v5.46h5.1Zm9.03-5.48v5.46h5.1v-5.46h-5.1ZM6.49,17.88v5.55h5.1v-5.55H6.49Zm14.14,5.55h5.1v-5.55h-5.1v5.55Zm19.24-5.54h-5.11v5.53h5.11v-5.53ZM11.58,38.35v-5.56H6.49v5.56h5.09Zm9.04-5.56v5.54h5.1v-5.54h-5.1Zm-9.04-1.94v-5.46H6.49v5.46h5.08Zm9.04,0h5.1v-5.46h-5.1v5.46Zm14.13-5.46v5.41h5.1v-5.41h-5.1Zm-1.95,7.41h-5.12v5.55h3.19c.23-1.38,.69-2.66,1.54-3.75,.44-.57,.45-1.13,.39-1.8ZM11.68,4.71c0,.63-.01,1.27,0,1.9,.01,.58,.42,.98,.95,.98,.53,0,.94-.41,.94-.98,.01-1.23,.01-2.47,0-3.7,0-.58-.4-.99-.92-1-.54-.01-.96,.41-.97,1.01-.01,.6,0,1.2,0,1.8Zm21.08,0c0,.62,0,1.23,0,1.85,.01,.61,.41,1.02,.96,1.02,.53,0,.93-.41,.93-.99,.01-1.23,.01-2.47,0-3.7,0-.58-.41-.99-.93-.99-.54,0-.95,.41-.96,1.02-.01,.6,0,1.2,0,1.8Z"/><path class="e" d="M4.74,11.4c.52,0,.96,.44,.95,.96,0,.51-.44,.93-.94,.93-.52,0-.96-.44-.95-.96,0-.51,.43-.93,.94-.93Z"/><path class="e" d="M20.59,43.87c0,.52-.45,.96-.97,.95-.51,0-.92-.43-.92-.94s.4-.94,.91-.95c.52-.02,.98,.42,.98,.94Z"/><path class="e" d="M39.46,40.38c1.01-1.01,1.91-1.92,2.83-2.82,.17-.16,.36-.33,.58-.4,.41-.13,.79,0,1.04,.37,.26,.39,.26,.81-.06,1.14-1.22,1.25-2.45,2.48-3.69,3.69-.39,.38-.88,.37-1.28-.02-.69-.65-1.36-1.33-2.01-2.01-.39-.41-.35-.95,.03-1.32,.36-.35,.9-.39,1.28-.02,.45,.42,.84,.89,1.3,1.38Z"/></g></g></g></g></svg>