<?xml version="1.0" encoding="UTF-8"?><svg xmlns="http://www.w3.org/2000/svg" viewBox="0 0 21.21 21.01"><defs><style>.d{fill:none;}.e{fill:#e6e6e6;}.f{fill:#ffda0e;}.g{fill:#f1f1f2;}.h{fill:#fcbe02;}.i{fill:#1a374d;}.j{fill:#47c9a7;}</style></defs><g id="a"/><g id="b"><g id="c"><g><g><g><path class="h" d="M9.62,0V21.01s5.18-1.78,7.89-7.09c2.51-4.91,1.55-10.34,1.55-10.34C19.06,3.57,16.12,3.62,15.54,0h-5.92Z"/><path class="f" d="M9.62,0V21.01s-5.18-1.78-7.89-7.09C-.78,9.01,.18,3.57,.18,3.57c0,0,2.93,.05,3.52-3.57h5.92Z"/></g><g><path class="d" d="M8.84,11.55c.05,.23,.07,.46,.09,.69,.01,.18,0,.37,0,.55,.01,.39,.28,.67,.66,.69,0,0,.02,0,.02,0v-2.95c-.18,0-.35,.06-.5,.19-.27,.22-.35,.5-.28,.84Z"/><path class="d" d="M10.3,12.84c.04-.5,.05-.99,.07-1.49h.06c0-.34-.15-.59-.45-.74-.12-.06-.24-.09-.35-.09v2.95c.36,0,.65-.26,.68-.63Z"/><path class="d" d="M11.38,9.01c0-.55,0-1.09,0-1.62,0-.11,0-.23-.02-.34-.12-.86-.89-1.52-1.74-1.51v3.47h1.76Z"/><path class="d" d="M7.89,7.11c-.04,.52-.02,1.04-.03,1.55,0,.11,0,.22,0,.34h1.76v-3.47h-.01c-.9,.01-1.64,.68-1.72,1.58Z"/><path class="e" d="M13.26,9.57c0-.25-.1-.45-.34-.51-.16-.04-.17-.13-.17-.26,0-.67,.03-1.35-.05-2.01-.2-1.54-1.6-2.62-3.08-2.63v1.38c.85,0,1.61,.65,1.74,1.51,.02,.11,.02,.23,.02,.34,0,.53,0,1.07,0,1.62h-1.76v1.52c.12,0,.23,.03,.35,.09,.3,.15,.45,.4,.45,.74h-.06c-.02,.5-.03,.99-.07,1.49-.03,.38-.33,.64-.68,.63v1.16c.99,0,1.98,0,2.98,0,.48,0,.66-.18,.66-.66,0-1.02,0-2.05,0-3.07,0-.44,0-.89,0-1.33Z"/><path class="g" d="M9.6,13.48c-.37-.02-.64-.3-.66-.69,0-.18,0-.37,0-.55-.02-.23-.04-.46-.09-.69-.08-.34,0-.62,.28-.84,.16-.13,.33-.19,.5-.19v-1.52h-1.76c0-.12,0-.23,0-.34,0-.52-.01-1.04,.03-1.55,.08-.9,.83-1.56,1.72-1.58h.01v-1.38c-.35,0-.7,.06-1.04,.19-1.28,.48-2.08,1.65-2.09,3.07,0,.53,0,1.05,0,1.57-.45,.19-.51,.28-.51,.76,0,1.41,0,2.81,0,4.22,0,.47,.19,.67,.67,.67,.99,0,1.99,0,2.98,0v-1.16s-.02,0-.02,0Z"/></g></g><path class="j" d="M21.21,7.86c0,1.28-1.04,2.32-2.31,2.32s-2.31-1.04-2.31-2.32,1.04-2.32,2.31-2.32,2.31,1.04,2.31,2.32h0Z"/><path class="i" d="M19.97,7.03c-.1-.1-.26-.1-.36,0l-1.1,1.11-.33-.33c-.1-.1-.26-.1-.36,0-.1,.1-.1,.26,0,.36l.51,.52c.1,.1,.26,.1,.36,0l1.29-1.29c.1-.1,.1-.26,0-.36h0Z"/></g></g></g></svg>