<?xml version="1.0" encoding="utf-8"?>
<!-- Generator: Adobe Illustrator 26.2.1, SVG Export Plug-In . SVG Version: 6.00 Build 0)  -->
<svg version="1.1" id="Layer_1" xmlns="http://www.w3.org/2000/svg" xmlns:xlink="http://www.w3.org/1999/xlink" x="0px" y="0px"
	 viewBox="0 0 1196.07 1074.43" style="enable-background:new 0 0 1196.07 1074.43;" xml:space="preserve">
<style type="text/css">
	.st0{fill:#E8EDEF;}
	.st1{fill:#154868;}
	.st2{fill:#F9B384;}
	.st3{fill:#E28B6D;}
	.st4{fill:#6998AB;}
</style>
<g>
	<g>
		<path class="st0" d="M434.64,915.43c-136.65-48.38-270.03-122.12-330.47-254.26C44.51,530.74,74.24,364.7,175.46,263.06
			c35.2-35.35,79.58-63.76,129.02-70.42c69.84-9.41,138.13,25.28,194.93,67c56.79,41.72,108.38,91.97,172.28,121.69
			c72.51,33.72,154.88,38.22,231.51,61.08c46.75,13.94,93.02,36.01,123.77,73.88c30.55,37.63,42.76,87.47,43.33,135.93
			c1.65,138.98-93.88,272.99-224.85,319.56c-85.81,30.52-175.71,11.16-260.81-11.25C536.57,947.86,485.38,933.4,434.64,915.43z"/>
	</g>
	<g>
		<path class="st0" d="M433.74,1001.41c-27.74,0-54.72-2.88-80.82-8.64c-71.61-15.8-139.16-55.89-190.21-112.87
			c-51.05-56.98-83.42-128.43-91.15-201.18c-4.4-41.43-3-101.86,28.68-154.44c18.1-30.04,45.34-56.19,80.96-77.71
			c29.38-17.75,63.96-32.37,105.73-44.68c21.35-6.3,43.34-11.83,64.62-17.18c50.71-12.75,103.14-25.93,150.29-50.43
			c46.69-24.26,87.62-59.31,127.19-93.21c24.87-21.3,50.6-43.33,77.62-62.61c52.11-37.17,99.44-56.03,144.7-57.65
			c59.46-2.15,110.11,26.08,142.12,50.12c115.51,86.76,163.08,252.45,113.12,393.96c-32.43,91.86-108.88,155.67-184.41,213.16
			c-36.48,27.77-85.08,63.96-137.55,97.65l-1.15-1.8l1.15,1.8c-75.78,48.67-144.09,82.21-208.85,102.56
			C526.72,993.69,479.21,1001.41,433.74,1001.41z M857.73,124.97c-2.06,0-4.14,0.04-6.22,0.11c-44.39,1.6-90.96,20.19-142.37,56.86
			c-26.87,19.16-52.51,41.13-77.32,62.37c-39.76,34.06-80.88,69.27-128,93.76c-47.59,24.73-100.27,37.97-151.22,50.78
			c-21.23,5.34-43.18,10.86-64.45,17.13c-91.36,26.95-151.63,66.36-184.24,120.51c-31.06,51.57-32.42,111-28.09,151.79
			c7.63,71.87,39.62,142.46,90.08,198.78c50.46,56.32,117.21,95.94,187.95,111.55c35.53,7.84,72.89,10.34,111.03,7.44
			c35.13-2.68,72.01-10.03,109.64-21.85c64.39-20.23,132.37-53.62,207.83-102.08c52.34-33.61,100.85-69.74,137.27-97.46
			c75.01-57.1,150.93-120.43,182.97-211.18c49.36-139.8,2.39-303.45-111.66-389.12C960.58,151.57,913.27,124.97,857.73,124.97z"/>
	</g>
	<g>
		<path class="st1" d="M743.39,666.47c0,0,58.52-88.73-145.36-260.52l24.54,222.76L743.39,666.47z"/>
	</g>
	<g>
		<path class="st2" d="M388.77,821.18L801.5,577.3c61.82-0.99,111.87-15.66,144.58-50.48c85.34,26.41,150.79-33.88,106.97-75.81
			c9.48-23.15,9.67-44.08-6.72-61.06c12.52-16.6,14.76-38.52,0.47-54.66c-2.04-67.54-60.07-107.29-165.56-77.95
			c18.83-81.69,31.61-159.45-37.08-184.32c-19.32,89.42-38.43,182.11-61.6,213.22c-39.31,28.87-74.32,56.54-94.27,80.02
			L240.35,562.81L388.77,821.18z"/>
	</g>
	<g>
		<path class="st3" d="M931.24,380.35c-7.86,0-15.73-0.91-23.42-2.75c-21.51-5.15-30-15.26-32.65-19.38
			c-4.21-6.53-4.51-20.69,1.75-31.37c4.95-8.43,13.06-12.76,22.85-12.12l30.72,2.63l39.23-33.85l3.28,3.8l-40.83,35.23l-32.77-2.81
			c-9.93-0.63-15.36,4.9-18.15,9.66c-5.1,8.69-5.19,20.95-1.87,26.11c2.32,3.6,9.86,12.49,29.6,17.22
			c20.54,4.91,42.42,2.86,61.6-5.8l75.18-33.91l2.06,4.57l-75.18,33.91C959.65,377.36,945.47,380.35,931.24,380.35z"/>
	</g>
	<g>
		<path class="st3" d="M938.99,433.68c-3.2,0-6.19-0.28-8.93-0.88c-34.46-7.57-54.95-29.57-58.26-39.66
			c-3.06-9.32,8.57-25.68,9.91-27.51l4.06,2.96c-4.46,6.13-10.9,17.79-9.2,22.99c2.2,6.72,19.92,28.72,54.57,36.32
			c33.51,7.34,113.11-39.63,113.91-40.1l2.57,4.31C1044.54,393.94,977.24,433.68,938.99,433.68z"/>
	</g>
	<g>
		<path class="st3" d="M954.16,480.92c-4.91,0-9.81-0.27-14.66-0.87c-54.83-6.75-68.83-14.29-74.47-25.03
			c-3.18-6.04-2.42-17.89,4.33-26.51c4.35-5.55,14.78-14.07,35.73-8.86l-1.21,4.87c-17.28-4.31-26.16,1.48-30.57,7.09
			c-5.83,7.43-5.98,17.01-3.84,21.07c4.62,8.78,18.4,15.95,70.64,22.38c51.11,6.3,111.14-25.94,111.74-26.26l2.4,4.41
			C1051.97,454.45,1002.66,480.92,954.16,480.92z"/>
	</g>
	<g>
		<path class="st3" d="M945.19,529.17c-21.46-8.19-51.44-29.35-51.53-45.19c-0.02-4.04,1.86-9.61,10.95-13.2l1.84,4.67
			c-7.8,3.08-7.78,7.16-7.77,8.5c0.07,12.27,26.48,32.2,48.3,40.53L945.19,529.17z"/>
	</g>
	<g>
		<path class="st3" d="M843.7,460.98l-1.54-4.78c26.15-8.41,29.95-61.97,32.21-93.96l0.4-5.57l5.01,0.37l-0.4,5.56
			C876.87,398.02,873.08,451.53,843.7,460.98z"/>
	</g>
	<g>
		<path class="st4" d="M598.03,405.95L79.38,581.7c4.97,27.35,13.18,54.08,24.8,79.47c50.05,109.42,150.12,178.8,260.65,226.89
			l378.57-221.6C664.11,590.95,617.47,495.23,598.03,405.95z"/>
	</g>
</g>
</svg>
